<svg xmlns="http://www.w3.org/2000/svg" aria-hidden="true" style="position:absolute;width:0;height:0;overflow:hidden">
  <defs>
    <symbol id="icon-back-arrow" viewBox="0 0 32 32">
      <path fill="#f1f5f9" d="m20.731 23.227-1.415 1.413-7.705-7.703a1.32 1.32 0 0 1-.392-.942 1.334 1.334 0 0 1 .392-.942l7.705-7.707 1.413 1.413-7.232 7.233 7.233 7.233z" style="fill:var(--color1, #f1f5f9)"/>
    </symbol>
    <symbol id="icon-close" viewBox="0 0 32 32">
      <path fill="none" stroke="#f1f5f9" stroke-linecap="round" stroke-linejoin="round" stroke-width="3.879" d="M2.424 2.424 16 16m0 0L29.576 2.424M16 16 2.424 29.576M16 16l13.576 13.576" style="stroke:var(--color1, #f1f5f9)"/>
    </symbol>
    <symbol id="icon-email" viewBox="0 0 32 32">
      <path fill="#a3e635" d="M28 6H4a2 2 0 0 0-2 2v16a2 2 0 0 0 2 2h24a2 2 0 0 0 2-2V8a2 2 0 0 0-2-2zm0 6-12 6-12-6V8l12 6 12-6v4z" style="fill:var(--color2, #a3e635)"/>
    </symbol>
    <symbol id="icon-left-arrow" viewBox="0 0 32 32">
      <path fill="#a3e635" d="M10.614 14.73h15.458v2.54H10.614l6.812 6.812-1.796 1.796L5.752 16l9.878-9.878 1.796 1.796-6.812 6.812z" style="fill:var(--color2, #a3e635)"/>
    </symbol>
    <symbol id="icon-menu" viewBox="0 0 32 32">
      <path fill="#a3e635" d="M29.474 22.655c.649 0 1.273.18 1.742.502s.749.761.78 1.226c.031.466-.188.922-.613 1.275s-1.021.574-1.667.619l-.242.008H2.527c-.649 0-1.273-.18-1.742-.502s-.749-.761-.78-1.226c-.031-.466.188-.922.613-1.275s1.021-.574 1.667-.619l.243-.008h26.947zm0-8.47c.67 0 1.313.191 1.786.532s.74.802.74 1.284-.266.943-.74 1.284c-.474.34-1.116.532-1.786.532H2.527c-.67 0-1.313-.191-1.786-.532s-.74-.802-.74-1.284.266-.943.74-1.284c.474-.34 1.116-.532 1.786-.532h26.947zm0-8.471c.67 0 1.313.191 1.786.532s.74.802.74 1.284-.266.943-.74 1.284c-.474.34-1.116.532-1.786.532H2.527c-.67 0-1.313-.191-1.786-.532s-.74-.802-.74-1.284c0-.481.266-.943.74-1.284s1.116-.532 1.786-.532h26.947z" style="fill:var(--color2, #a3e635)"/>
    </symbol>
    <symbol id="icon-right-arrow" viewBox="0 0 31 32">
      <path fill="#a3e635" d="M20.796 17.27H5.338v-2.54h15.458l-6.812-6.812 1.796-1.796L25.658 16l-9.878 9.878-1.796-1.796 6.812-6.812z" style="fill:var(--color2, #a3e635)"/>
    </symbol>
  </defs>
</svg>
